<?xml version="1.0" encoding="UTF-8"?>
<svg width="19px" height="19px" viewBox="0 0 19 19" version="1.1" xmlns="http://www.w3.org/2000/svg" xmlns:xlink="http://www.w3.org/1999/xlink">
    <title>send</title>
    <g id="Page-1" stroke="none" stroke-width="1" fill="none" fill-rule="evenodd">
        <g id="01_02_04" transform="translate(-1583.000000, -1020.000000)" fill="#FFFFFF">
            <g id="Group-20" transform="translate(1226.000000, 340.000000)">
                <g id="Group-13" transform="translate(0.000000, 593.000000)">
                    <g id="Group-18" transform="translate(346.000000, 75.000000)">
                        <path d="M11.8179551,13.3757421 L14.152249,20.1556743 L14.152249,20.1556743 L22.0200946,20.1567934 C22.5664441,20.1567934 23.0093479,20.5937711 23.0093479,21.1328106 C23.0093479,21.67185 22.5664441,22.1088278 22.0200946,22.1088278 L14.3487807,22.1077087 L11.8095871,29.5395502 C11.6310257,30.0621727 11.9099424,30.6305945 12.4325649,30.8091559 C12.6919079,30.8977641 12.976252,30.8760501 13.219133,30.7490895 L29.3046122,22.3407709 C29.794061,22.0849227 29.9834317,21.48074 29.7275834,20.9912912 C29.6330514,20.8104473 29.4854561,20.6628521 29.3046122,20.56832 L13.2267375,12.1639764 C12.7372887,11.9081282 12.1331061,12.0974989 11.8772579,12.5869477 C11.7499185,12.8305535 11.7284706,13.1158352 11.8179551,13.3757421 Z" id="send"></path>
                    </g>
                </g>
            </g>
        </g>
    </g>
</svg>